<svg xmlns="http://www.w3.org/2000/svg" xmlns:xlink="http://www.w3.org/1999/xlink" viewBox="0 0 117.84 171.16"><defs><style>.cls-1{isolation:isolate;}.cls-2,.cls-5,.cls-6,.cls-7{fill:#594748;}.cls-2,.cls-4,.cls-6,.cls-7{stroke:#fff;stroke-miterlimit:10;}.cls-3{fill:url(#Degradado_sin_nombre_2);}.cls-4{fill:none;}.cls-6{mix-blend-mode:screen;}.cls-7{font-size:48.44px;font-family:ArialRoundedMTBold, Arial Rounded MT Bold;}</style><linearGradient id="Degradado_sin_nombre_2" x1="279.21" y1="273.7" x2="279.21" y2="148.95" gradientUnits="userSpaceOnUse"><stop offset="0" stop-color="#ff992e"/><stop offset="0.22" stop-color="#f88138"/><stop offset="0.67" stop-color="#e74453"/><stop offset="1" stop-color="#da1467"/></linearGradient></defs><g class="cls-1"><g id="TEXTS"><polygon class="cls-2" points="74.42 26.4 105.3 12.05 105.3 1.06 74.42 26.4"/><polygon class="cls-2" points="43.42 26.4 12.54 12.05 12.54 1.06 43.42 26.4"/><path class="cls-2" d="M308.42,176.11v86.71l-30.33,14.09a28.26,28.26,0,0,0-28.09-25v-5.09a12.16,12.16,0,0,0,12.16-12.17,11.94,11.94,0,0,0-.49-3.4,55.87,55.87,0,0,0,46.75-55.1Z" transform="translate(-191.08 -164.14)"/><path class="cls-3" d="M308.42,176.11a55.87,55.87,0,0,1-46.75,55.1A12.14,12.14,0,0,0,250,222.45V203.26Z" transform="translate(-191.08 -164.14)"/><path class="cls-4" d="M308.42,176.11a55.87,55.87,0,0,1-46.75,55.1A12.14,12.14,0,0,0,250,222.45V203.26Z" transform="translate(-191.08 -164.14)"/><path class="cls-5" d="M308.42,176.11a55.87,55.87,0,0,1-46.75,55.1A12.14,12.14,0,0,0,250,222.45V203.26Z" transform="translate(-191.08 -164.14)"/><polygon class="cls-6" points="58.92 39.12 114.09 17.81 117.34 98.68 117.34 11.97 58.92 39.12"/><path class="cls-2" d="M191.58,176.11v86.71l30.33,14.09a28.26,28.26,0,0,1,28.09-25v-5.09a12.16,12.16,0,0,1-12.16-12.17,11.94,11.94,0,0,1,.49-3.4,55.87,55.87,0,0,1-46.75-55.1Z" transform="translate(-191.08 -164.14)"/><path class="cls-2" d="M191.58,176.11a55.87,55.87,0,0,0,46.75,55.1A12.14,12.14,0,0,1,250,222.45V203.26Z" transform="translate(-191.08 -164.14)"/><polygon class="cls-6" points="58.92 39.12 3.75 17.81 0.5 98.68 0.5 11.97 58.92 39.12"/><text class="cls-7" transform="translate(6.43 160.44)">PEM</text></g></g></svg>